<?xml version="1.0" encoding="UTF-8" standalone="no"?>
<svg
   xmlns:dc="http://purl.org/dc/elements/1.1/"
   xmlns:cc="http://creativecommons.org/ns#"
   xmlns:rdf="http://www.w3.org/1999/02/22-rdf-syntax-ns#"
   xmlns:svg="http://www.w3.org/2000/svg"
   xmlns="http://www.w3.org/2000/svg"
   id="svg21"
   xml:space="preserve"
   viewBox="0 0 378 252"
   height="252"
   width="378"
   version="1.1"><metadata
     id="metadata25"><rdf:RDF><cc:Work
         rdf:about=""><dc:format>image/svg+xml</dc:format><dc:type
           rdf:resource="http://purl.org/dc/dcmitype/StillImage" /></cc:Work></rdf:RDF></metadata><desc
     id="desc2">Created with Fabric.js 2.4.6</desc><defs
     id="defs4" /><g
     id="g10"
     transform="translate(123.8,199.92)"><g
       id="text8"
       style="font-style:italic;font-weight:700;font-size:112px;font-family:'Open Sans';white-space:pre;opacity:1;fill:#424242;fill-opacity:0.81000001;fill-rule:nonzero;stroke:none;stroke-width:1;stroke-linecap:butt;stroke-linejoin:miter;stroke-miterlimit:4;stroke-dasharray:none;stroke-dashoffset:0"
       aria-label="VR"><path
         id="path27"
         style=""
         d="M -37.872185,18.828438 Q -33.60656,6.7425003 -31.85656,3.3518753 L -8.2315598,-44.773125 h 17.28125 L -31.85656,35.18 h -18.265625 l -6.945312,-79.953125 h 16.132812 l 2.789063,48.1250003 q 0.164062,1.96875 0.164062,5.9609375 0,6.0703122 -0.273437,9.5156252 z" /><path
         id="path29"
         style=""
         d="M 25.01844,4.5003128 18.510628,35.18 H 1.8309402 L 18.729378,-44.773125 H 38.36219 q 12.90625,0 19.414063,5.578125 6.5625,5.523438 6.5625,16.351563 0,8.640625 -4.539063,14.8749998 -4.539062,6.1796875 -13.070312,9.1875 L 61.002815,35.18 H 42.846565 L 31.526253,4.5003128 Z m 2.898438,-13.78125 h 4.265625 q 7.328125,0 11.210937,-3.1718748 3.9375,-3.171875 3.9375,-9.460938 0,-4.539062 -2.625,-6.726562 -2.625,-2.242188 -8.148437,-2.242188 h -4.046875 z" /></g></g><g
     id="g19"
     transform="matrix(15.56,0,0,15.56,189.32,126.66)"><radialGradient
       fy="12"
       fx="12"
       r="12.012051"
       cy="16.011869"
       cx="12"
       gradientUnits="userSpaceOnUse"
       id="SVGID_6"><stop
         id="stop12"
         style="stop-color:rgb(45,37,37);stop-opacity: 1"
         offset="26.640516084834648%" /><stop
         id="stop14"
         style="stop-color:rgb(102,102,102);stop-opacity: 1"
         offset="100%" /></radialGradient><path
       id="path17"
       d="m 20.28,7 a 2,2 0 1 0 0,-2 H 10 A 1,1 0 0 0 9.11,5.55 L 6.38,11 H 3.72 a 2,2 0 1 0 0,2 h 7.66 l 2.73,5.45 A 1,1 0 0 0 15,19 h 5.28 a 2,2 0 1 0 0,-2 h -4.66 l -2,-4 h 6.66 a 2,2 0 1 0 0,-2 H 8.62 l 2,-4 z"
       transform="translate(-12,-12)"
       style="opacity:1;fill:url(#SVGID_6);fill-rule:nonzero;stroke:none;stroke-width:1;stroke-linecap:butt;stroke-linejoin:miter;stroke-miterlimit:4;stroke-dasharray:none;stroke-dashoffset:0" /></g></svg>